<svg xmlns="http://www.w3.org/2000/svg" xmlns:xlink="http://www.w3.org/1999/xlink" viewBox="0 0 909.09 651.15"><defs><style>.cls-1{fill:none;}.cls-2{fill:url(#linear-gradient);}.cls-3{clip-path:url(#clip-path);}.cls-4{fill:url(#linear-gradient-2);}.cls-5{fill:url(#linear-gradient-3);}.cls-6{fill:url(#linear-gradient-4);}.cls-7{fill:url(#linear-gradient-5);}.cls-8{fill:url(#linear-gradient-6);}.cls-9{fill:url(#linear-gradient-7);}.cls-10{fill:url(#linear-gradient-8);}.cls-11{fill:url(#linear-gradient-9);}</style><linearGradient id="linear-gradient" x1="52.66" y1="-117.99" x2="621.21" y2="531.08" gradientUnits="userSpaceOnUse"><stop offset="0" stop-color="#565865"/><stop offset="0.35" stop-color="#2f3235"/><stop offset="0.37" stop-color="#2c2f32"/><stop offset="0.53" stop-color="#17181e"/><stop offset="0.68" stop-color="#0a0b12"/><stop offset="0.81" stop-color="#06060e"/></linearGradient><clipPath id="clip-path"><rect class="cls-1" width="750" height="500"/></clipPath><linearGradient id="linear-gradient-2" x1="862.74" y1="420.29" x2="581.49" y2="294.83" gradientUnits="userSpaceOnUse"><stop offset="0" stop-color="#0e0f13"/><stop offset="0.06" stop-color="#0c0d12"/><stop offset="0.47" stop-color="#03030b"/><stop offset="1" stop-color="#000009"/></linearGradient><linearGradient id="linear-gradient-3" x1="543.7" y1="337.55" x2="717.53" y2="417.02" gradientUnits="userSpaceOnUse"><stop offset="0.03" stop-color="#4f5458"/><stop offset="0.08" stop-color="#393d41"/><stop offset="0.14" stop-color="#222428"/><stop offset="0.19" stop-color="#131418"/><stop offset="0.24" stop-color="#0e0f13"/><stop offset="1" stop-color="#06060e"/></linearGradient><linearGradient id="linear-gradient-4" x1="2855.65" y1="1403.16" x2="2469.62" y2="1451.08" gradientTransform="matrix(0.5, 0.25, -0.7, 1.38, 224.03, -2274.08)" xlink:href="#linear-gradient-2"/><linearGradient id="linear-gradient-5" x1="416.01" y1="379.66" x2="621.29" y2="470.71" xlink:href="#linear-gradient-3"/><linearGradient id="linear-gradient-6" x1="2780.42" y1="1464.72" x2="2334.5" y2="1514.63" gradientTransform="matrix(0.5, 0.25, -0.7, 1.38, 224.03, -2274.08)" xlink:href="#linear-gradient-2"/><linearGradient id="linear-gradient-7" x1="2300.02" y1="1551.77" x2="2730.71" y2="1545.38" gradientTransform="matrix(0.5, 0.25, -0.7, 1.38, 224.03, -2274.08)" xlink:href="#linear-gradient-3"/><linearGradient id="linear-gradient-8" x1="2695.45" y1="1535.29" x2="2211.6" y2="1590.53" gradientTransform="matrix(0.5, 0.25, -0.7, 1.38, 224.03, -2274.08)" xlink:href="#linear-gradient-2"/><linearGradient id="linear-gradient-9" x1="492.61" y1="136.7" x2="742.05" y2="355.52" gradientUnits="userSpaceOnUse"><stop offset="0.01" stop-color="#1f2226"/><stop offset="0.47" stop-color="#1b1e22"/><stop offset="0.94" stop-color="#101115"/><stop offset="1" stop-color="#0e0f13"/></linearGradient></defs><g id="BACKGROUND"><rect class="cls-2" width="750" height="500"/></g><g id="OBJECTS"><g id="Sway"><g class="cls-3"><g id="patterns"><path class="cls-4" d="M759.39,651.15,908.57,4.26C901.75,19.2,843.44,23.44,787,27.55c-51.3,3.73-104.3,7.58-109.77,19.56l-275.39,604Z"/><path class="cls-5" d="M676.35,47,400.89,651.15H546.71L805.34,83.88a3.35,3.35,0,0,0,.19-.53c2.8-10.88-30.65-13.79-63-16.6-34.33-3-69.83-6.07-66.55-18.79A5.86,5.86,0,0,1,676.35,47Z"/><path class="cls-6" d="M547.63,651.15,806.2,84c-4.51,9.9-52.87,10.94-108.68,12.14-66.34,1.42-141.32,3-149.31,20.55L304.54,651.15Z"/><path class="cls-7" d="M547.34,116.56,303.61,651.15h188L696.75,201.26a8,8,0,0,0,.47-1.32c5-19.42-37.06-31.38-77.74-42.94-39.63-11.27-77.05-21.91-72.63-39A9.32,9.32,0,0,1,547.34,116.56Z"/><path class="cls-8" d="M492.56,651.15l205-449.73c-7.89,17.3-73,20.23-141.91,23.31-38.67,1.74-78.66,3.53-109.58,8-32.48,4.65-50.52,11.67-55,21.42l-181,397Z"/><path class="cls-9" d="M390.3,253.94,209.21,651.15H433.56l137-300.54a6.62,6.62,0,0,0,.34-.94c3.85-14.92-36.64-26.08-79.5-37.89-26-7.17-52.94-14.59-72.74-23.45-22.6-10.13-32.13-20.67-29.15-32.22A13.36,13.36,0,0,1,390.3,253.94Z"/><path class="cls-10" d="M434.48,651.15l137-300.4C564.82,365.27,501.77,369.31,429,374c-84.27,5.4-179.48,11.5-190.78,36.29L128.43,651.15Z"/><path class="cls-11" d="M787,27.55C845.39,23.3,905.8,18.91,909.09,2.67c-4,15.52-64,19.88-122,24.1C731.73,30.79,679.45,34.59,676,48c-3.29,12.72,32.21,15.8,66.54,18.79,32.34,2.81,65.79,5.72,63,16.6-2.52,9.74-53.68,10.84-107.85,12-34.75.75-70.68,1.52-99.08,4.51-32.56,3.42-49.49,9.34-51.75,18.1-4.42,17.13,33,27.77,72.63,39,40.68,11.56,82.75,23.52,77.74,42.94-2.06,8-17.07,13.69-45.9,17.47-26.08,3.42-59.8,4.94-95.49,6.54-78.59,3.52-159.85,7.17-166.3,32.16-3,11.55,6.55,22.09,29.15,32.22,19.8,8.86,46.71,16.28,72.74,23.45,42.86,11.81,83.35,23,79.5,37.89-3.79,14.67-70.81,19-141.76,23.51C384.8,376,338.93,379,302.75,384.59c-41.34,6.43-63,15.49-65.22,27.73,6.84-26.52,105-32.81,191.51-38.35,74.48-4.78,138.81-8.89,142.78-24.29S535,322.93,491.86,311c-50.59-13.94-107.92-29.74-101.43-54.9,2.79-10.81,21-18.48,55.68-23.44,30.92-4.43,70.91-6.22,109.58-8,70.77-3.17,137.63-6.17,142.43-24.78,5.17-20-37.22-32.06-78.2-43.7-39.31-11.18-76.44-21.74-72.17-38.27,4.84-18.73,81.83-20.39,149.77-21.84,57-1.23,106.2-2.28,108.91-12.78,3-11.6-29.36-14.41-63.62-17.39-33.93-2.95-69-6-65.91-18C680.17,35.32,734.46,31.37,787,27.55Z"/></g></g></g></g></svg>